<?xml version="1.0" encoding="UTF-8"?>
<svg width="83px" height="31px" viewBox="0 0 83 31" version="1.1" xmlns="http://www.w3.org/2000/svg" xmlns:xlink="http://www.w3.org/1999/xlink">
    <title>LOGO</title>
    <defs>
        <filter id="filter-1">
            <feColorMatrix in="SourceGraphic" type="matrix" values="0 0 0 0 1.000000 0 0 0 0 0.991292 0 0 0 0 0.991292 0 0 0 1.000000 0"></feColorMatrix>
        </filter>
        <polygon id="path-2" points="0.122723043 0.0373573519 7.76634494 0.0373573519 7.76634494 10.3212801 0.122723043 10.3212801"></polygon>
        <polygon id="path-4" points="0 31.0129138 82.3232563 31.0129138 82.3232563 0 0 0"></polygon>
    </defs>
    <g id="LOGO" stroke="none" stroke-width="1" fill="none" fill-rule="evenodd">
        <g filter="url(#filter-1)" id="编组">
            <g>
                <path d="M55.4020377,16.0025957 C54.6260935,16.0029901 54.4221469,16.0029901 53.6462027,16.0029901 L53.6462027,9.83271538 L55.4010515,9.83271538 C57.1050122,9.83271538 58.4862875,11.2139906 58.4862875,12.9177541 C58.4862875,14.6213204 57.1056039,16.0025957 55.4020377,16.0025957 M55.4010515,7.77589138 L51.6542708,7.77589138 C51.6177813,7.7764831 51.5899704,7.80429401 51.5893787,7.8407835 L51.5893787,17.7353535 C51.5893787,17.9140534 51.7349422,18.0598141 51.9134449,18.0598141 L55.4010515,18.0598141 C58.3486136,18.0598141 60.542717,16.1120641 60.542717,12.9177541 C60.542717,10.0463268 58.2541354,7.81297259 55.4010515,7.77589138" id="Fill-1" fill="#003893"></path>
                <g transform="translate(74.556911, 7.738534)">
                    <mask id="mask-3" fill="white">
                        <use xlink:href="#path-2"></use>
                    </mask>
                    <g id="Clip-4"></g>
                    <path d="M0.187417929,0.0373573519 L7.44231823,0.0373573519 C7.62082089,0.0373573519 7.76638438,0.182920846 7.76638438,0.361423504 L7.76638438,2.02928923 C7.76638438,2.06498976 7.73699555,2.09418135 7.70149226,2.09418135 L2.1793498,2.09418135 L2.1793498,4.15080811 L6.41390623,4.15080811 C6.59240889,4.15080811 6.73797238,4.29637161 6.73797238,4.47487426 L6.73797238,6.14273998 C6.73797238,6.17844052 6.70878079,6.20763211 6.6732775,6.20763211 L2.1793498,6.20763211 L2.1793498,8.26445611 L7.44231823,8.26445611 C7.62082089,8.26445611 7.76638438,8.40962512 7.76638438,8.58852226 L7.76638438,10.2561907 C7.76638438,10.2918913 7.73699555,10.3212801 7.70149226,10.3212801 L1.41879041,10.3212801 C0.704977018,10.3212801 0.122723043,9.7388289 0.122723043,9.02481826 L0.122723043,0.102249478 C0.122723043,0.0665489468 0.151717397,0.0373573519 0.187417929,0.0373573519" id="Fill-3" fill="#003893" mask="url(#mask-3)"></path>
                </g>
                <path d="M49.4763609,8.09997725 L49.4763609,17.9947445 C49.4763609,18.030445 49.4471693,18.0598339 49.4114688,18.0598339 L47.743603,18.0598339 C47.5651004,18.0598339 47.4195369,17.9140731 47.4195369,17.7353732 L47.4195369,7.84080323 C47.4195369,7.8051027 47.4487285,7.7759111 47.4842318,7.7759111 L49.1522947,7.7759111 C49.3307974,7.7759111 49.4763609,7.92147459 49.4763609,8.09997725" id="Fill-5" fill="#003893"></path>
                <path d="M64.57238,11.153635 L64.57238,17.9947248 C64.57238,18.0304253 64.5433856,18.0598141 64.5076851,18.0598141 L62.8398194,18.0598141 C62.6613167,18.0598141 62.5157532,17.9140534 62.5157532,17.7353535 L62.5157532,7.8407835 C62.5157532,7.80508297 62.5449448,7.77589138 62.5804481,7.77589138 L64.4212938,7.77589138 C64.5205057,7.77589138 64.6059109,7.81573396 64.6696196,7.89167155 L67.6079114,11.3934795 C67.620732,11.408667 67.6376947,11.4165566 67.657616,11.4165566 C67.67734,11.4165566 67.6945,11.408667 67.7073206,11.3934795 L70.6454152,7.89167155 C70.7091239,7.81573396 70.794529,7.77589138 70.893741,7.77589138 L72.4752154,7.77589138 C72.6539153,7.77589138 72.7992815,7.92145487 72.7992815,8.09995753 L72.7992815,17.9947248 C72.7992815,18.0304253 72.7702872,18.0598141 72.7345866,18.0598141 L71.0667209,18.0598141 C70.8882183,18.0598141 70.7424575,17.9140534 70.7424575,17.7353535 L70.7424575,11.153635 C70.7424575,11.1260214 70.7260866,11.1023525 70.6998536,11.092885 C70.6740151,11.0832202 70.6460069,11.0907153 70.6282553,11.1120173 L67.9055473,14.3564264 C67.8420359,14.4325612 67.756828,14.4722066 67.657616,14.4722066 C67.558404,14.4722066 67.4729989,14.4325612 67.4092902,14.3564264 L64.6869767,11.1120173 C64.6690278,11.0907153 64.6412169,11.0832202 64.6151812,11.092885 C64.5889482,11.1023525 64.57238,11.1260214 64.57238,11.153635" id="Fill-7" fill="#003893"></path>
                <path d="M41.9151461,7.55448891 C43.2719635,7.55448891 44.5114229,8.0584384 45.4558104,8.88941266 C45.5258308,8.95075445 45.562912,9.02945342 45.5658706,9.12235369 C45.568632,9.21505673 45.536679,9.29612258 45.4709979,9.36180367 L44.2360751,10.5969237 C44.2112228,10.621776 44.1707885,10.6221705 44.1453445,10.5977127 C43.5668381,10.0416917 42.7808347,9.69967666 41.9151461,9.69967666 C40.1378119,9.69967666 38.6971672,11.1405186 38.6971672,12.9176555 C38.6971672,14.6949897 40.1378119,16.1358316 41.9151461,16.1358316 C42.6977964,16.1358316 43.4149629,15.8565391 43.9729563,15.3920377 C44.1019516,15.2843444 44.2903162,15.2930229 44.4094495,15.411959 L45.661335,16.6640417 C45.6743529,16.6768623 45.6804673,16.6922471 45.6804673,16.710196 C45.6802701,16.7283421 45.6737612,16.7437269 45.6607433,16.756153 C44.6942648,17.6995544 43.3725562,18.2808221 41.9151461,18.2808221 C38.9529881,18.2808221 36.5517822,15.8796162 36.5517822,12.9176555 C36.5517822,9.95569483 38.9529881,7.55448891 41.9151461,7.55448891" id="Fill-9" fill="#003893"></path>
                <path d="M28.0478367,7.77589138 L35.302737,7.77589138 C35.4810424,7.77589138 35.6266059,7.92145487 35.6266059,8.09995753 L35.6266059,9.76782325 C35.6266059,9.80352378 35.5976115,9.83271538 35.561911,9.83271538 L30.0397686,9.83271538 L30.0397686,11.8893421 L34.274325,11.8893421 C34.4528277,11.8893421 34.5983911,12.0349056 34.5983911,12.2134083 L34.5983911,13.881274 C34.5983911,13.9169745 34.5691995,13.9461661 34.533499,13.9461661 L30.0397686,13.9461661 L30.0397686,16.0029901 L35.302737,16.0029901 C35.4810424,16.0029901 35.6266059,16.1481591 35.6266059,16.3270563 L35.6266059,17.9947248 C35.6266059,18.0304253 35.5976115,18.0598141 35.561911,18.0598141 L29.2792092,18.0598141 C28.5651985,18.0598141 27.9829446,17.4773629 27.9829446,16.7633523 L27.9829446,7.8407835 C27.9829446,7.80508297 28.0121362,7.77589138 28.0478367,7.77589138" id="Fill-11" fill="#003893"></path>
                <mask id="mask-5" fill="white">
                    <use xlink:href="#path-4"></use>
                </mask>
                <g id="Clip-14"></g>
                <path d="M78.7608955,22.5789097 L79.1271712,22.5789097 L79.1271712,20.2035423 L78.7608955,20.2035423 L78.7608955,22.5789097 Z M79.2236218,19.7786863 L78.2833763,19.7786863 L78.2833763,23.4171819 C78.2833763,23.4515017 78.314343,23.4753678 78.3468877,23.4753678 L78.7606983,23.4753678 L78.7606983,23.0035685 L79.541179,23.0035685 C79.5737237,23.0035685 79.6048877,22.9793079 79.6048877,22.9453826 L79.6048877,20.1384529 C79.6048877,19.9319421 79.4244126,19.7786863 79.2236218,19.7786863 L79.2236218,19.7786863 Z" id="Fill-13" fill="#003893" mask="url(#mask-5)"></path>
                <path d="M82.1535506,19.8896143 L81.34447,19.8896143 L81.34447,19.6973048 C81.34447,19.6635767 81.3135033,19.6391189 81.2809586,19.6391189 L80.867148,19.6391189 L80.867148,19.8896143 L79.8886379,19.8896143 L79.8886379,20.5549065 C79.8886379,20.5892264 79.9196046,20.6130925 79.9523465,20.6130925 L80.3661571,20.6130925 L80.3661571,20.3144704 L80.4081694,20.3144704 L81.8034487,20.3144704 L81.8454609,20.3144704 L81.8454609,20.5549065 C81.8454609,20.5892264 81.8766249,20.6130925 81.9093669,20.6130925 L82.3231774,20.6130925 L82.3231774,20.0483929 C82.3231774,19.9570706 82.2423088,19.8896143 82.1535506,19.8896143" id="Fill-15" fill="#003893" mask="url(#mask-5)"></path>
                <path d="M82.2595082,21.6540095 L79.8884801,21.6540095 L79.8884801,22.0206796 C79.8884801,22.054605 79.9196441,22.0788656 79.952386,22.0788656 L80.4076171,22.0788656 L79.8245741,23.3956432 C79.81629,23.4141838 79.8184597,23.4323299 79.8300969,23.4488981 C79.8427203,23.466847 79.8616554,23.4753284 79.8835491,23.4753284 L80.3056437,23.4753284 C80.331285,23.4753284 80.3539677,23.4630995 80.3646187,23.4392334 L80.9669912,22.0788656 L81.1729102,22.0788656 L81.1729102,23.1159562 C81.1729102,23.3220725 81.3531881,23.4753284 81.5541761,23.4753284 L82.3232169,23.4753284 L82.3232169,23.1090528 C82.3232169,23.0751274 82.2922501,23.0508668 82.2595082,23.0508668 L81.6504295,23.0508668 L81.6504295,22.0788656 L82.3232169,22.0788656 L82.3232169,21.71259 C82.3232169,21.6782701 82.2922501,21.6540095 82.2595082,21.6540095" id="Fill-16" fill="#003893" mask="url(#mask-5)"></path>
                <path d="M82.2595082,20.8839234 L79.8884801,20.8839234 L79.8884801,21.2505935 C79.8884801,21.2845189 79.9196441,21.3087795 79.952386,21.3087795 L82.3232169,21.3087795 L82.3232169,20.9425039 C82.3232169,20.9085785 82.2922501,20.8839234 82.2595082,20.8839234" id="Fill-17" fill="#003893" mask="url(#mask-5)"></path>
                <path d="M77.0513135,19.8900088 L75.5666842,19.8900088 L75.5666842,19.6973048 C75.5666842,19.6635767 75.5355202,19.6393161 75.5027782,19.6393161 L74.9402483,19.6393161 L74.9402483,19.8900088 L73.2859922,19.8900088 L73.2859922,20.5683189 C73.2859922,20.6022443 73.3169589,20.6265048 73.3497009,20.6265048 L73.912428,20.6265048 L73.912428,20.3758122 L73.9546375,20.3758122 L76.552295,20.3758122 L76.5945044,20.3758122 L76.5945044,20.5683189 C76.5945044,20.6022443 76.6254712,20.6265048 76.6582131,20.6265048 L77.2207431,20.6265048 L77.2207431,20.0487874 C77.2207431,19.957465 77.1398744,19.8900088 77.0513135,19.8900088" id="Fill-18" fill="#003893" mask="url(#mask-5)"></path>
                <path d="M77.1718866,20.9890921 L75.7732541,20.67903 C75.7533329,20.6746907 75.7343978,20.678241 75.7178296,20.6908644 C75.7028393,20.7021071 75.6945552,20.7167029 75.6945552,20.735638 L75.6945552,21.099744 C75.6945552,21.1285411 75.7158572,21.1500403 75.7434708,21.156352 L77.1423005,21.4664141 C77.1620246,21.4709506 77.1809596,21.4672031 77.1975278,21.4547769 C77.2125181,21.443337 77.2208022,21.4287412 77.2208022,21.4098061 L77.2208022,21.0460946 C77.2208022,21.016903 77.1995002,20.9952065 77.1718866,20.9890921" id="Fill-19" fill="#003893" mask="url(#mask-5)"></path>
                <path d="M73.3648095,21.4663944 L74.7634419,21.1563323 C74.7908584,21.1500206 74.8121603,21.1285214 74.8121603,21.0997243 L74.8121603,20.7356183 C74.8121603,20.7166832 74.8038762,20.7020874 74.788886,20.6908447 C74.772515,20.6782213 74.7535799,20.674671 74.7334614,20.6790103 L73.3348289,20.9890723 C73.3074125,20.9951868 73.2861105,21.0168833 73.2861105,21.0460749 L73.2861105,21.4097863 C73.2861105,21.4287214 73.2943946,21.4433172 73.3093849,21.4547572 C73.3259531,21.4671833 73.3444937,21.4709309 73.3648095,21.4663944" id="Fill-20" fill="#003893" mask="url(#mask-5)"></path>
                <path d="M77.1570541,22.9896039 L76.7458076,22.9896039 L76.7458076,21.7911706 L74.8874076,21.7911706 L74.8874076,21.5623716 C74.8874076,21.5284462 74.8564408,21.5041857 74.8238961,21.5041857 L74.2609717,21.5041857 L74.2609717,21.7911706 L73.2860119,21.7911706 L73.2860119,22.218788 C73.2860119,22.2527134 73.3169787,22.2773684 73.3497206,22.2773684 L74.0481492,22.2773684 L73.3716143,23.3890159 C73.3603716,23.4075565 73.3603716,23.4272806 73.3716143,23.4458212 C73.383646,23.4657425 73.4039617,23.4754073 73.4272361,23.4754073 L73.9660972,23.4754073 C73.9893716,23.4754073 74.0096873,23.4657425 74.021719,23.4458212 L74.7329683,22.2773684 L76.1193718,22.2773684 L76.1193718,23.1160351 C76.1193718,23.3221514 76.2998469,23.4754073 76.5008349,23.4754073 L77.2207628,23.4754073 L77.2207628,23.0481843 C77.2207628,23.0138645 77.1895988,22.9896039 77.1570541,22.9896039" id="Fill-21" fill="#003893" mask="url(#mask-5)"></path>
                <path d="M68.8828937,22.9749687 L69.3371386,22.9749687 L69.3371386,21.6820571 L68.8828937,21.6820571 L68.8828937,22.9749687 Z M69.7511465,19.6392372 L68.2493572,19.6392372 L68.2493572,20.0668546 C68.2493572,20.10078 68.2805212,20.1250406 68.3130659,20.1250406 L68.8395008,20.1250406 L68.2627696,20.8033507 C68.2536965,20.8141989 68.2493572,20.8250471 68.2493572,20.8392485 L68.2493572,21.6917219 C68.2493572,21.7075012 68.2600082,21.7187439 68.2744068,21.7232804 C68.2809157,21.7252528 68.2874247,21.7256473 68.2939336,21.7248583 C68.3215473,21.7199273 68.348372,21.7268307 68.3706602,21.7441879 C68.3927511,21.7619395 68.4053745,21.7873836 68.4053745,21.8157862 L68.4053745,23.3023879 C68.4053745,23.3937103 68.4862431,23.4611665 68.5750013,23.4611665 L69.6452283,23.4611665 C69.7337893,23.4611665 69.8146579,23.3937103 69.8146579,23.3023879 L69.8146579,21.2544397 C69.8146579,21.2205144 69.7836911,21.1962538 69.7511465,21.1962538 L68.7012352,21.1962538 L69.5779693,20.1250406 L69.8146579,20.1250406 L69.8146579,19.6974232 C69.8146579,19.6634978 69.7836911,19.6392372 69.7511465,19.6392372 L69.7511465,19.6392372 Z" id="Fill-22" fill="#003893" mask="url(#mask-5)"></path>
                <path d="M72.1597883,19.6392175 L70.1005975,19.6392175 L70.1005975,20.0668349 C70.1005975,20.1007603 70.1315642,20.1250209 70.1643061,20.1250209 L70.3735783,20.1250209 L70.3735783,21.1273971 L70.1005975,21.1273971 L70.1005975,21.5550145 C70.1005975,21.5889399 70.1315642,21.6132005 70.1643061,21.6132005 L70.3735783,21.6132005 L70.3735783,22.0558082 C70.3735783,22.1088659 70.3696335,22.1601484 70.3611522,22.2130089 L70.1698289,23.4086808 C70.1668703,23.4264325 70.1718013,23.4410283 70.1836357,23.4546378 C70.1968508,23.4688392 70.2132218,23.4753481 70.2327486,23.4753481 L70.6733839,23.4753481 C70.7033644,23.4753481 70.7313726,23.4566103 70.7363036,23.4256435 L70.9323607,22.1993993 C70.9402503,22.1512726 70.9439979,22.1047238 70.9439979,22.0558082 L70.9439979,21.6132005 L71.5047526,21.6132005 L71.5047526,23.4171621 C71.5047526,23.451482 71.5357194,23.4753481 71.5682641,23.4753481 L72.0363158,23.4753481 L72.0363158,21.6132005 L72.223497,21.6132005 L72.223497,21.1855831 C72.223497,21.1516577 72.1925303,21.1273971 72.1597883,21.1273971 L72.0363158,21.1273971 L72.0363158,20.5329142 C72.0363158,20.4985944 72.005349,20.4747283 71.9728043,20.4747283 L71.5047526,20.4747283 L71.5047526,21.1273971 L70.9439979,21.1273971 L70.9439979,20.1250209 L72.223497,20.1250209 L72.223497,19.6974034 C72.223497,19.6634781 72.1925303,19.6392175 72.1597883,19.6392175" id="Fill-23" fill="#003893" mask="url(#mask-5)"></path>
                <path d="M64.6024197,19.6392175 L63.1635502,19.6392175 L63.1635502,20.0058876 C63.1635502,20.039813 63.1947142,20.0640735 63.2272589,20.0640735 L63.6018186,20.0640735 L63.6018186,20.848499 L63.1635502,20.848499 L63.1635502,21.2147747 C63.1635502,21.2490945 63.1947142,21.2729606 63.2272589,21.2729606 L63.6018186,21.2729606 L63.6018186,21.6059026 L63.1183822,22.0674454 C63.1065477,22.0784908 63.1006305,22.0913115 63.1006305,22.1074852 L63.1006305,22.8382613 C63.1006305,22.8637053 63.1162125,22.8828376 63.1394869,22.8917134 C63.164142,22.9013782 63.1909667,22.8968417 63.2102962,22.8786956 L63.6018186,22.5049248 L63.6018186,23.4171621 C63.6018186,23.451482 63.6327854,23.4753481 63.6653301,23.4753481 L64.2280572,23.4753481 L64.2280572,22.4422023 L64.6659312,22.4422023 L64.6659312,22.0759267 C64.6659312,22.0416069 64.6349644,22.0173463 64.6024197,22.0173463 L64.2280572,22.0173463 L64.2280572,21.2729606 L64.6659312,21.2729606 L64.6659312,20.906685 C64.6659312,20.8727596 64.6349644,20.848499 64.6024197,20.848499 L64.2280572,20.848499 L64.2280572,20.0640735 L64.6659312,20.0640735 L64.6659312,19.6974034 C64.6659312,19.6634781 64.6349644,19.6392175 64.6024197,19.6392175" id="Fill-24" fill="#003893" mask="url(#mask-5)"></path>
                <path d="M65.6134351,20.5992068 L66.4615693,20.5992068 L66.4615693,20.0640933 L65.6134351,20.0640933 L65.6134351,20.5992068 Z M65.1566261,21.0240628 L67.0880051,21.0240628 L67.0880051,19.7980158 C67.0880051,19.7066935 67.0071365,19.6392372 66.9181811,19.6392372 L64.9871965,19.6392372 L64.9871965,20.8654814 C64.9871965,20.9568038 65.0680651,21.0240628 65.1566261,21.0240628 L65.1566261,21.0240628 Z" id="Fill-25" fill="#003893" mask="url(#mask-5)"></path>
                <path d="M67.1232126,23.0508668 L66.3525939,23.0508668 L66.3525939,22.6183184 L67.0879065,22.6183184 L67.0879065,22.2518455 C67.0879065,22.2175257 67.0569398,22.1932651 67.0241978,22.1932651 L66.3525939,22.1932651 L66.3525939,21.7999675 L67.0879065,21.7999675 L67.0879065,21.4332974 C67.0879065,21.399372 67.0569398,21.3751115 67.0241978,21.3751115 L64.9906482,21.3751115 L64.9906482,21.7413871 C64.9906482,21.7757069 65.0220095,21.7999675 65.0545541,21.7999675 L65.7261581,21.7999675 L65.7261581,22.1932651 L64.9906482,22.1932651 L64.9906482,22.5601324 C64.9906482,22.5940578 65.0220095,22.6183184 65.0545541,22.6183184 L65.7261581,22.6183184 L65.7261581,23.0508668 L64.8918307,23.0508668 L64.8918307,23.4171424 C64.8918307,23.4514623 64.923192,23.4753284 64.9557366,23.4753284 L67.186724,23.4753284 L67.186724,23.1090528 C67.186724,23.0751274 67.1557573,23.0508668 67.1232126,23.0508668" id="Fill-26" fill="#003893" mask="url(#mask-5)"></path>
                <path d="M61.9743478,19.6392175 L58.1035028,19.6392175 L58.1035028,20.0668349 C58.1035028,20.1007603 58.1344696,20.1250209 58.1670143,20.1250209 L59.757759,20.1250209 L59.757759,22.9895447 L58.1035028,22.9895447 L58.1035028,23.4171621 C58.1035028,23.451482 58.1344696,23.4753481 58.1670143,23.4753481 L62.0380565,23.4753481 L62.0380565,23.0481252 C62.0380565,23.0138053 62.0070897,22.9895447 61.9743478,22.9895447 L60.3839976,22.9895447 L60.3839976,20.1250209 L62.0380565,20.1250209 L62.0380565,19.6974034 C62.0380565,19.6634781 62.0070897,19.6392175 61.9743478,19.6392175" id="Fill-27" fill="#003893" mask="url(#mask-5)"></path>
                <path d="M56.9772793,21.9252152 L55.8480774,21.9252152 L56.5999582,21.4382284 C56.6169209,21.4267885 56.6267829,21.4114037 56.6267829,21.3904962 L56.6267829,21.0743197 C56.6267829,20.9829973 56.5459143,20.9155411 56.4571561,20.9155411 L53.5206394,20.9155411 L53.5206394,21.3431585 C53.5206394,21.3770839 53.5516062,21.4013445 53.5841508,21.4013445 L55.7317055,21.4013445 L54.9234139,21.9252152 L53.1062371,21.9252152 L53.1062371,22.3528327 C53.1062371,22.386758 53.1372039,22.4110186 53.1699458,22.4110186 L54.8853465,22.4110186 L54.8853465,22.989525 L54.344513,22.989525 L54.344513,23.4171424 C54.344513,23.4514623 54.375677,23.4753284 54.4084189,23.4753284 L55.1305164,23.4753284 C55.33111,23.4753284 55.5115851,23.3220725 55.5115851,23.1159562 L55.5115851,22.4110186 L57.040988,22.4110186 L57.040988,21.9834012 C57.040988,21.9494758 57.009824,21.9252152 56.9772793,21.9252152" id="Fill-28" fill="#003893" mask="url(#mask-5)"></path>
                <path d="M56.8715189,19.9751378 L56.4285167,19.9751378 L56.5801947,19.7258258 C56.5914374,19.7074824 56.5914374,19.6877584 56.5801947,19.6692178 C56.5679658,19.6492965 56.54765,19.6392372 56.5245729,19.6392372 L56.0210178,19.6392372 L55.8164794,19.9751378 L55.3868896,19.9751378 L55.3868896,19.6974232 C55.3868896,19.6634978 55.3557256,19.6392372 55.3229837,19.6392372 L54.7604538,19.6392372 L54.7604538,19.9751378 L54.3306667,19.9751378 L54.1263255,19.6392372 L53.6225733,19.6392372 C53.5994961,19.6392372 53.5793776,19.6492965 53.5671487,19.6692178 C53.5557088,19.6877584 53.5557088,19.7074824 53.5671487,19.7258258 L53.7188267,19.9751378 L53.1061976,19.9751378 L53.1061976,20.6534479 C53.1061976,20.6873733 53.1371644,20.7116338 53.1699063,20.7116338 L53.7326335,20.7116338 L53.7326335,20.4609412 L56.4147099,20.4609412 L56.4147099,20.6534479 C56.4147099,20.6873733 56.4456767,20.7116338 56.4782213,20.7116338 L57.0409485,20.7116338 L57.0409485,20.1339164 C57.0409485,20.0421996 56.9600799,19.9751378 56.8715189,19.9751378" id="Fill-29" fill="#003893" mask="url(#mask-5)"></path>
                <path d="M51.9799938,19.6392175 L48.1091489,19.6392175 L48.1091489,23.1159759 C48.1091489,23.3220922 48.2896239,23.4753481 48.4904148,23.4753481 L52.0437025,23.4753481 L52.0437025,23.1090725 C52.0437025,23.0751471 52.0127357,23.0508865 51.9799938,23.0508865 L48.7355847,23.0508865 L48.7355847,20.0640735 L52.0437025,20.0640735 L52.0437025,19.6974034 C52.0437025,19.6634781 52.0127357,19.6392175 51.9799938,19.6392175" id="Fill-30" fill="#003893" mask="url(#mask-5)"></path>
                <path d="M49.0836156,22.7488324 C49.0944638,22.772304 49.1169492,22.7843357 49.1423933,22.7843357 L49.7258307,22.7843357 C49.7447658,22.7843357 49.7603478,22.7784185 49.7733656,22.7650061 L50.4930962,22.0269322 L51.2124324,22.7650061 C51.2256475,22.7784185 51.2412295,22.7843357 51.2599673,22.7843357 L51.843602,22.7843357 C51.8688488,22.7843357 51.8915314,22.772304 51.9021824,22.7488324 C51.9124389,22.7269387 51.9077052,22.7044533 51.891137,22.6874906 L51.1341279,21.9109547 L51.8929121,21.9109547 L51.8929121,21.5446791 C51.8929121,21.5103593 51.8619454,21.4860987 51.8294007,21.4860987 L50.8339278,21.4860987 L50.8339278,21.1010852 L51.8929121,21.1010852 L51.8929121,20.7348096 C51.8929121,20.7008842 51.8619454,20.6766237 51.8294007,20.6766237 L49.761334,20.6766237 L49.6792819,20.6766237 L49.8629128,20.4204082 C49.8759307,20.4024594 49.8771141,20.3819463 49.8664632,20.3622223 C49.8546287,20.3411176 49.8337212,20.3302693 49.8096579,20.3302693 L49.3552158,20.3302693 C49.3333221,20.3302693 49.3147815,20.3387507 49.3017636,20.3565023 L49.1035369,20.633428 C49.0960417,20.6434873 49.0930831,20.653152 49.0930831,20.6653809 L49.0930831,20.9425039 C49.0930831,21.0342207 49.1737545,21.1010852 49.2623155,21.1010852 L50.207492,21.1010852 L50.207492,21.4860987 L49.0930831,21.4860987 L49.0930831,21.8527688 C49.0930831,21.8866942 49.1238526,21.9109547 49.1565946,21.9109547 L49.8520646,21.9109547 L49.0948583,22.6874906 C49.0782901,22.7044533 49.0735563,22.7269387 49.0836156,22.7488324" id="Fill-31" fill="#003893" mask="url(#mask-5)"></path>
                <path d="M46.9829253,21.9252152 L45.7223612,21.9252152 L46.605407,21.3532178 C46.6225669,21.3419751 46.6324289,21.3261958 46.6324289,21.3052883 L46.6324289,20.9891118 C46.6324289,20.8977894 46.5513631,20.8303332 46.4628021,20.8303332 L43.5262854,20.8303332 L43.5262854,21.2579506 C43.5262854,21.291876 43.5572522,21.3161366 43.5897969,21.3161366 L45.7371543,21.3161366 L44.7976977,21.9252152 L43.1118831,21.9252152 L43.1118831,22.3528327 C43.1118831,22.386758 43.1430471,22.4110186 43.1755918,22.4110186 L44.9294544,22.4110186 L44.9294544,22.989525 L44.3888182,22.989525 L44.3888182,23.4171424 C44.3888182,23.4514623 44.4197849,23.4753284 44.4525268,23.4753284 L45.1744271,23.4753284 C45.3754152,23.4753284 45.5558902,23.3220725 45.5558902,23.1159562 L45.5558902,22.4110186 L47.046634,22.4110186 L47.046634,21.9834012 C47.046634,21.9494758 47.01547,21.9252152 46.9829253,21.9252152" id="Fill-32" fill="#003893" mask="url(#mask-5)"></path>
                <path d="M46.8769874,19.8900088 L45.4347648,19.8900088 L45.3925554,19.8900088 L45.3925554,19.6973048 C45.3925554,19.6635767 45.3613914,19.6393161 45.3286494,19.6393161 L44.7661195,19.6393161 L44.7661195,19.8900088 L43.1118634,19.8900088 L43.1118634,20.5683189 C43.1118634,20.6022443 43.1430274,20.6265048 43.1755721,20.6265048 L43.7382992,20.6265048 L43.7382992,20.3758122 L43.7805087,20.3758122 L46.3781662,20.3758122 L46.4203756,20.3758122 L46.4203756,20.5683189 C46.4203756,20.6022443 46.4513424,20.6265048 46.4840843,20.6265048 L47.0466143,20.6265048 L47.0466143,20.0487874 C47.0466143,19.957465 46.9657456,19.8900088 46.8769874,19.8900088" id="Fill-33" fill="#003893" mask="url(#mask-5)"></path>
                <path d="M38.0602973,21.4363349 L38.4790389,21.4363349 L38.4790389,21.0414594 C38.4790389,21.0071396 38.4480722,20.982879 38.4153303,20.982879 L37.9967859,20.982879 L37.9967859,21.378149 C37.9967859,21.4120743 38.0277527,21.4363349 38.0602973,21.4363349" id="Fill-34" fill="#003893" mask="url(#mask-5)"></path>
                <path d="M39.5012576,22.0635006 L39.0229494,22.486187 L38.5444439,22.0635006 L39.5012576,22.0635006 Z M39.8793676,20.32522 L39.2639773,20.32522 L39.2639773,19.6974034 C39.2639773,19.6634781 39.2330105,19.6392175 39.2004658,19.6392175 L38.7817242,19.6392175 L38.7817242,20.32522 L38.47896,20.32522 L38.47896,19.6974034 C38.47896,19.6634781 38.4479933,19.6392175 38.4152514,19.6392175 L37.996707,19.6392175 L37.996707,20.5914947 C37.996707,20.682817 38.0775756,20.7502733 38.1661366,20.7502733 L38.7817242,20.7502733 L38.7817242,21.6690195 L37.996707,21.6690195 L37.996707,22.210642 C37.996707,22.2276047 38.0032159,22.241017 38.0162338,22.2522597 L38.6523344,22.8143952 L38.0116973,23.3790947 C37.9939456,23.394874 37.991776,23.4183456 38.0012435,23.4396476 C38.0116973,23.4631192 38.0345772,23.4753481 38.0600212,23.4753481 L38.6472062,23.4753481 L39.0207797,23.139842 L39.3975091,23.4753481 L39.9846941,23.4753481 C40.0101381,23.4753481 40.033018,23.4631192 40.043669,23.4396476 C40.0529393,23.4183456 40.0507696,23.394874 40.0328207,23.3790947 L39.3939587,22.8140007 L40.0296649,22.2522597 C40.0424855,22.241017 40.0489945,22.2276047 40.0489945,22.210642 L40.0489945,21.6690195 L39.2639773,21.6690195 L39.2639773,20.7502733 L39.5667414,20.7502733 L39.5667414,21.3780898 C39.5667414,21.4120152 39.5977082,21.4362757 39.6302529,21.4362757 L40.0489945,21.4362757 L40.0489945,20.4839986 C40.0489945,20.3926762 39.9683231,20.32522 39.8793676,20.32522 L39.8793676,20.32522 Z" id="Fill-35" fill="#003893" mask="url(#mask-5)"></path>
                <path d="M41.9016745,20.1176835 L40.838351,20.1176835 L41.0785899,19.7259639 C41.0898326,19.7074233 41.0900299,19.6876992 41.0787872,19.6693558 C41.0665582,19.6492373 41.0464397,19.639178 41.0229681,19.639178 L40.6641876,19.639178 L40.3892343,20.0873085 L40.3892343,20.3835637 C40.3892343,20.4750833 40.4699057,20.5421451 40.5586639,20.5421451 L41.3710976,20.5421451 L41.3710976,22.0145455 C41.3710976,22.0472874 41.3606438,22.0762817 41.3401308,22.1017258 L41.1213911,22.3747066 L40.9024541,22.1017258 C40.8819411,22.0762817 40.8714874,22.0472874 40.8714874,22.0145455 L40.8714874,20.9563501 C40.8714874,20.9224248 40.8405206,20.8981642 40.8077787,20.8981642 L40.3892343,20.8981642 L40.3892343,22.2206618 C40.3892343,22.2340741 40.3929819,22.2441334 40.401266,22.2549816 L40.8065953,22.7674125 L40.3130995,23.3830001 C40.2988982,23.4007517 40.2963341,23.4218565 40.3069851,23.4421722 C40.318425,23.4642632 40.3399242,23.4753087 40.3645793,23.4753087 L40.8758267,23.4753087 L41.1213911,23.1652466 L41.3667583,23.4753087 L41.8782029,23.4753087 C41.9024635,23.4753087 41.9239627,23.4642632 41.9355999,23.4421722 C41.9462509,23.4218565 41.9436868,23.4007517 41.9294855,23.3830001 L41.4359897,22.7674125 L41.8413189,22.2549816 C41.8494058,22.2441334 41.8533506,22.2340741 41.8533506,22.2206618 L41.8533506,20.5421451 L41.9653832,20.5421451 L41.9653832,20.1758695 C41.9653832,20.1419441 41.9344165,20.1176835 41.9016745,20.1176835" id="Fill-36" fill="#003893" mask="url(#mask-5)"></path>
                <path d="M39.9854041,19.6392175 L39.5666625,19.6392175 L39.5666625,20.0344875 C39.5666625,20.0684128 39.5978265,20.0926734 39.6303712,20.0926734 L40.0491128,20.0926734 L40.0491128,19.6974034 C40.0491128,19.6634781 40.0181461,19.6392175 39.9854041,19.6392175" id="Fill-37" fill="#003893" mask="url(#mask-5)"></path>
                <path d="M36.8704834,19.9643487 L34.4233205,19.9643487 L34.5473847,19.7223346 C34.5568523,19.7035968 34.5556689,19.6846617 34.5442289,19.6673045 C34.5316055,19.6483695 34.5120787,19.6392964 34.4895933,19.6392964 L34.0144409,19.6392964 C33.9897858,19.6392964 33.9680894,19.6507363 33.9566494,19.67263 L33.8075356,19.9643487 L32.9994413,19.9643487 L32.9994413,20.3919662 C32.9994413,20.4258915 33.030408,20.4501521 33.0631499,20.4501521 L33.5588153,20.4501521 L33.1116711,21.3235331 C33.1037815,21.3389178 33.1002312,21.3531191 33.1002312,21.3704763 L33.1002312,21.5042054 C33.1002312,21.7103217 33.2807062,21.8635776 33.4814971,21.8635776 L34.6536974,21.8635776 L34.6536974,22.9896236 L34.2966921,22.9896236 L34.2966921,23.417241 C34.2966921,23.4515609 34.3276588,23.475427 34.3604007,23.475427 L35.1105064,23.475427 C35.1990674,23.475427 35.2801332,23.4083652 35.2801332,23.3170429 L35.2801332,21.8635776 L36.8334022,21.8635776 L36.8334022,21.4359602 C36.8334022,21.4020348 36.8022382,21.3777742 36.7696935,21.3777742 L35.2801332,21.3777742 L35.2801332,20.8919708 C35.2801332,20.8580455 35.2489692,20.8337849 35.2162273,20.8337849 L34.6536974,20.8337849 L34.6536974,21.3777742 L33.6998423,21.3777742 L34.1747974,20.4501521 L36.9341921,20.4501521 L36.9341921,20.0225347 C36.9341921,19.9886093 36.9032254,19.9643487 36.8704834,19.9643487" id="Fill-38" fill="#003893" mask="url(#mask-5)"></path>
                <path d="M36.4515446,22.3416491 C36.4414853,22.3169941 36.4180137,22.3035817 36.3917807,22.3035817 L35.8773775,22.3035817 C35.855681,22.3035817 35.8369432,22.312063 35.8241225,22.3296174 C35.8124854,22.3457912 35.8101185,22.3635428 35.8176136,22.3820834 L36.2477952,23.4377146 C36.2578544,23.4623697 36.281326,23.4753875 36.307559,23.4753875 L36.821765,23.4753875 C36.8436587,23.4753875 36.8621993,23.4673007 36.87502,23.449549 C36.8868544,23.4329808 36.8892213,23.4156237 36.8817261,23.3972803 L36.4515446,22.3416491 Z" id="Fill-39" fill="#003893" mask="url(#mask-5)"></path>
                <path d="M34.0562559,22.3035028 L33.5418526,22.3035028 C33.5156197,22.3035028 33.4923453,22.3169152 33.4820888,22.3415702 L33.0521045,23.3972014 C33.0444121,23.415742 33.0469762,23.4330992 33.0586134,23.4496674 C33.071434,23.4672218 33.0899746,23.4753087 33.1116711,23.4753087 L33.6262716,23.4753087 C33.6525046,23.4753087 33.675779,23.4622908 33.6858382,23.4376357 L34.1160198,22.3820045 C34.1235149,22.3636612 34.121148,22.3459095 34.1095108,22.3297358 C34.0966902,22.3119841 34.0779523,22.3035028 34.0562559,22.3035028" id="Fill-40" fill="#003893" mask="url(#mask-5)"></path>
                <path d="M31.8732177,22.3123589 L30.2828675,22.3123589 L30.2828675,22.1038757 C30.2828675,22.0699503 30.2517035,22.0456897 30.2191588,22.0456897 L29.6564316,22.0456897 L29.6564316,22.3123589 L28.0023728,22.3123589 L28.0023728,22.7399763 C28.0023728,22.7739017 28.0333395,22.7981623 28.0660814,22.7981623 L29.6564316,22.7981623 L29.6564316,23.4173002 C29.6564316,23.4514228 29.6873984,23.4752889 29.7201403,23.4752889 L30.2828675,23.4752889 L30.2828675,22.7981623 L31.9369264,22.7981623 L31.9369264,22.3705449 C31.9369264,22.3366195 31.9059596,22.3123589 31.8732177,22.3123589" id="Fill-41" fill="#003893" mask="url(#mask-5)"></path>
                <path d="M31.907222,19.7131827 C31.8867089,19.7015455 31.8642235,19.7009538 31.8431188,19.7112103 L30.7707222,20.2394204 L30.7707222,19.6974034 C30.7707222,19.6634781 30.7397554,19.6392175 30.7070135,19.6392175 L30.1442863,19.6392175 L30.1442863,20.5479045 L29.3898414,20.9197029 C29.3691311,20.9297621 29.3561132,20.9479083 29.3561132,20.9709854 L29.3561132,21.4240468 C29.3561132,21.4459405 29.367356,21.4625087 29.3860938,21.473357 C29.4062123,21.4851914 29.4290922,21.4855859 29.4499997,21.4753294 L30.1442863,21.1335116 L30.1442863,21.3601409 C30.1442863,21.5662572 30.3247614,21.7195131 30.5255522,21.7195131 L31.8732966,21.7195131 C31.9060385,21.7195131 31.9370053,21.6952525 31.9370053,21.6613272 L31.9370053,21.2337097 L30.7707222,21.2337097 L30.7707222,20.8246329 L31.9034744,20.2668368 C31.9239874,20.256383 31.9370053,20.2386314 31.9370053,20.2151598 L31.9370053,19.7624928 C31.9370053,19.7405991 31.9259598,19.7240309 31.907222,19.7131827" id="Fill-42" fill="#003893" mask="url(#mask-5)"></path>
                <path d="M28.2955313,21.6613272 C28.2955313,21.695647 28.3266953,21.7195131 28.35924,21.7195131 L28.9219672,21.7195131 L28.9219672,20.4169368 L28.624134,20.4169368 L29.0446508,19.7258061 C29.0558935,19.7074627 29.0558935,19.6877387 29.0446508,19.669198 C29.0324218,19.6492768 29.0123033,19.6392175 28.9890289,19.6392175 L28.5227524,19.6392175 C28.4996752,19.6392175 28.4793595,19.6492768 28.4673278,19.669198 L27.8785649,20.6366627 C27.8673222,20.6550061 27.8673222,20.6747301 27.8785649,20.6932708 C27.8907938,20.713192 27.9109123,20.7232513 27.9341867,20.7232513 L28.2955313,20.7232513 L28.2955313,21.6613272 Z" id="Fill-43" fill="#003893" mask="url(#mask-5)"></path>
                <path d="M12.8540455,7.46963604 L13.897645,7.46963604 C14.0086914,7.46963604 14.0992248,7.37910265 14.0992248,7.26805625 L14.0992248,4.97967189 L16.3874119,4.97967189 C16.4984583,4.97967189 16.5889917,4.8891385 16.5889917,4.77809209 L16.5889917,2.69128754 C16.5889917,2.58024113 16.4984583,2.48970774 16.3874119,2.48970774 L14.0992248,2.48970774 L14.0992248,0.201520625 C14.0992248,0.0902769797 14.0086914,-5.91721519e-05 13.897645,-5.91721519e-05 L12.8540455,-5.91721519e-05 L11.8106432,-5.91721519e-05 C11.6995968,-5.91721519e-05 11.6090634,0.0902769797 11.6090634,0.201520625 L11.6090634,2.48970774 L9.32087626,2.48970774 C9.20982986,2.48970774 9.11929647,2.58024113 9.11929647,2.69128754 L9.11929647,4.77809209 C9.11929647,4.8891385 9.20982986,4.97967189 9.32087626,4.97967189 L11.6090634,4.97967189 L11.6090634,7.26805625 C11.6090634,7.37910265 11.6995968,7.46963604 11.8106432,7.46963604 L12.8540455,7.46963604 Z" id="Fill-44" fill="#003893" mask="url(#mask-5)"></path>
                <path d="M12.8540455,24.5043518 L15.6278387,24.5043518 C15.6834605,24.5043518 15.7304038,24.5402496 15.7448023,24.5940963 C15.7590036,24.6477457 15.736321,24.7023813 15.6881943,24.7301922 L12.9944807,26.2771495 C12.9497071,26.3025935 12.9019749,26.3158086 12.8540455,26.3158086 C12.806116,26.3158086 12.7583838,26.3025935 12.7136102,26.2771495 L10.0200939,24.7301922 C9.97196717,24.7023813 9.94928452,24.6477457 9.96348583,24.5940963 C9.97788439,24.5402496 10.0248276,24.5043518 10.0802522,24.5043518 L12.8540455,24.5043518 Z" id="Fill-45" fill="#003893" mask="url(#mask-5)"></path>
                <path d="M12.4686178,30.8984946 C12.5794669,30.9708818 12.7118153,31.012894 12.8540257,31.012894 C12.9836127,31.012894 13.1049157,30.9781797 13.2092559,30.9174296 L21.0075538,26.4154151 C21.0972982,26.3635408 21.1485807,26.2745854 21.1485807,26.1708369 L21.1485807,21.0688167 L22.9764085,22.1244479 C23.027691,22.1536395 23.0570799,22.2045275 23.0570799,22.2638969 C23.0570799,22.3230691 23.027691,22.3739571 22.9764085,22.4037404 L22.0282734,22.9506884 C21.9215663,23.0124246 21.8602245,23.1187373 21.8602245,23.2420126 L21.8602245,25.6434157 C21.8602245,25.7027851 21.8896133,25.7536732 21.9408959,25.7832593 C21.9921784,25.8130426 22.0509561,25.8130426 22.1022386,25.7832593 L25.5671626,23.782846 C25.656907,23.731169 25.7083868,23.6422136 25.7083868,23.5386623 L25.7083868,20.9891315 C25.7083868,20.8857775 25.656907,20.7964275 25.5671626,20.7447505 L16.8307888,15.7009163 C16.7795063,15.6713302 16.7503147,15.6204422 16.7503147,15.5614673 C16.7503147,15.5020979 16.7797035,15.4514071 16.8307888,15.4216237 L18.6586166,14.366387 L18.6586166,15.7711339 C18.6586166,15.8746852 18.7100964,15.9636407 18.7998408,16.0153177 L20.9067639,17.2318971 C20.9580464,17.2614832 21.0168241,17.2614832 21.0681066,17.2318971 C21.1193891,17.202311 21.1485807,17.151423 21.1485807,17.0924481 L21.1485807,8.54167764 C21.1485807,8.4377319 21.0967065,8.34818471 21.0063703,8.29650769 L18.8998417,7.09412957 C18.8485592,7.06493797 18.7899788,7.06513521 18.7390907,7.09472129 C18.6880054,7.12450461 18.6586166,7.17519542 18.6586166,7.23417033 L18.6586166,11.4912122 L14.2400348,14.0423209 C14.1504876,14.0939979 14.099205,14.1831506 14.099205,14.2867019 L14.099205,16.8358382 C14.099205,16.9395867 14.1504876,17.0285421 14.2400348,17.0800219 L18.6586166,19.6311306 L18.6586166,24.7335453 C18.6586166,24.8372938 18.6073341,24.9262493 18.5173924,24.977729 L12.9952499,28.1659246 C12.9502791,28.1921576 12.9021524,28.2049782 12.8540257,28.2049782 C12.805899,28.2049782 12.7577724,28.1921576 12.7129988,28.1659246 L7.19065907,24.977729 C7.10091464,24.9262493 7.04943487,24.8372938 7.04943487,24.7335453 L7.04943487,19.6311306 L11.4680167,17.0800219 C11.5577611,17.0285421 11.6092409,16.9395867 11.6092409,16.8358382 L11.6092409,14.2867019 C11.6092409,14.1831506 11.5577611,14.0939979 11.4680167,14.0423209 L7.04943487,11.4912122 L7.04943487,7.23417033 C7.04943487,7.17519542 7.02024327,7.12450461 6.96935522,7.09472129 C6.91807269,7.06513521 6.8596895,7.06493797 6.80840697,7.09412957 L4.70187836,8.29650769 C4.61154221,8.34818471 4.55966796,8.4377319 4.55966796,8.54167764 L4.55966796,17.0924481 C4.55966796,17.151423 4.58885955,17.202311 4.64033932,17.2318971 C4.69142462,17.2614832 4.75020229,17.2614832 4.80148482,17.2318971 L6.90840791,16.0153177 C6.99834958,15.9636407 7.04943487,15.8746852 7.04943487,15.7711339 L7.04943487,14.366387 L8.87745988,15.4216237 C8.92854517,15.4514071 8.95813125,15.5020979 8.95813125,15.5614673 C8.95813125,15.6204422 8.92874241,15.6713302 8.87745988,15.7009163 L0.141086134,20.7447505 C0.0513417038,20.7964275 5.91721519e-05,20.8857775 5.91721519e-05,20.9891315 L5.91721519e-05,23.5386623 C5.91721519e-05,23.6422136 0.0513417038,23.731169 0.141086134,23.782846 L3.60601011,25.7832593 C3.65729264,25.8130426 3.71607031,25.8130426 3.76735284,25.7832593 C3.81843813,25.7536732 3.84802421,25.7027851 3.84802421,25.6434157 L3.84802421,23.2420126 C3.84802421,23.1187373 3.78668241,23.0124246 3.67977806,22.9506884 L2.73164294,22.4037404 C2.68055765,22.3739571 2.65116882,22.3230691 2.65116882,22.2638969 C2.65116882,22.2045275 2.68055765,22.1536395 2.73164294,22.1244479 L4.55966796,21.0688167 L4.55966796,26.1708369 C4.55966796,26.2745854 4.61095049,26.3635408 4.70069492,26.4154151 L12.4686178,30.8984946 Z" id="Fill-46" fill="#003893" mask="url(#mask-5)"></path>
                <path d="M6.4171607,5.22476294 C6.4171607,5.26914206 6.38106569,5.30523707 6.33688382,5.30543431 L5.28519744,5.3078012 C5.26665683,5.3078012 5.25087759,5.29576953 5.24614382,5.27801788 C5.24141004,5.26006899 5.24910242,5.24172563 5.2650789,5.23265256 L6.29664675,4.64388965 C6.32228802,4.62909662 6.35147961,4.62929386 6.37692364,4.64388965 C6.4025649,4.65887993 6.4171607,4.68412672 6.4171607,4.71391003 L6.4171607,5.22476294 Z M6.9688424,3.49082165 C6.91775711,3.46123558 6.85897944,3.46123558 6.8076969,3.49082165 L0.14116503,7.33977289 C0.0514206,7.39144991 -5.91721519e-05,7.48060262 -5.91721519e-05,7.58415388 L-5.91721519e-05,10.1332902 C-5.91721519e-05,10.2370387 0.0514206,10.3259942 0.14116503,10.3776712 L3.60608901,12.3794651 C3.6571743,12.4092484 3.71614921,12.4092484 3.7672345,12.3794651 C3.81851703,12.3500762 3.84810311,12.2989909 3.84810311,12.2398188 L3.84810311,9.80705439 C3.84810311,9.70330588 3.79662333,9.61435041 3.7068789,9.56247616 L2.73172184,8.99836831 C2.68063655,8.96878224 2.65124771,8.91809143 2.65124771,8.85872203 C2.65124771,8.79954988 2.68063655,8.74866183 2.73172184,8.71907575 L6.64655141,6.45889679 C6.90276683,6.31096641 7.04951376,6.05692064 7.04951376,5.76086264 L7.04951376,3.63046793 C7.04951376,3.57129578 7.02032217,3.52040773 6.9688424,3.49082165 L6.9688424,3.49082165 Z" id="Fill-47" fill="#003893" mask="url(#mask-5)"></path>
                <path d="M2.34887802,12.474318 L0.241954929,11.2579358 C0.190672397,11.2283498 0.131894727,11.2283498 0.0806121949,11.2579358 C0.0293296633,11.2873247 -5.91721519e-05,11.33841 -5.91721519e-05,11.3975821 L-5.91721519e-05,19.7246818 C-5.91721519e-05,19.7836567 0.0293296633,19.8349392 0.0806121949,19.8645253 C0.131894727,19.8939142 0.190672397,19.8939142 0.241954929,19.8645253 L2.34887802,18.6479459 C2.43862245,18.5964661 2.48990498,18.5073134 2.48990498,18.4037621 L2.48990498,12.718699 C2.48990498,12.6151478 2.43862245,12.5261923 2.34887802,12.474318" id="Fill-48" fill="#003893" mask="url(#mask-5)"></path>
                <path d="M25.6274984,11.2579358 C25.5764131,11.2283498 25.5176355,11.2283498 25.4663529,11.2579358 L23.3594299,12.474318 C23.2696854,12.5261923 23.2184029,12.6151478 23.2184029,12.718699 L23.2184029,18.4037621 C23.2184029,18.5073134 23.2696854,18.5964661 23.3594299,18.6479459 L25.4663529,19.8645253 C25.5176355,19.8939142 25.5764131,19.8939142 25.6274984,19.8645253 C25.6789782,19.8349392 25.708367,19.7836567 25.708367,19.7246818 L25.708367,11.3975821 C25.708367,11.33841 25.6789782,11.2873247 25.6274984,11.2579358" id="Fill-49" fill="#003893" mask="url(#mask-5)"></path>
                <path d="M20.4229724,5.30788009 L19.3714832,5.30531597 C19.3271041,5.30531597 19.2912063,5.26902371 19.2912063,5.22484184 L19.2912063,4.71379169 C19.2912063,4.68420561 19.3056049,4.65876159 19.3312462,4.64396855 C19.3566902,4.62937275 19.386079,4.62917551 19.4117203,4.64377131 L20.4432881,5.23253422 C20.4592646,5.24180452 20.466957,5.25995065 20.4622232,5.27789954 C20.4572922,5.29584842 20.441513,5.30788009 20.4229724,5.30788009 M25.567202,7.33965455 L18.9004729,3.49090055 C18.8491904,3.46131447 18.7906099,3.46131447 18.7393274,3.49090055 C18.6880449,3.52028938 18.658656,3.57117744 18.658656,3.63034959 L18.658656,5.7607443 C18.658656,6.0568023 18.805403,6.31104531 19.0618156,6.45897569 L22.976448,8.71915465 C23.0277305,8.74874073 23.0571193,8.79962878 23.0571193,8.85880093 C23.0571193,8.91797308 23.0277305,8.96886113 22.976448,8.99844721 L22.0012909,9.56255506 C21.9117437,9.61423207 21.8602639,9.70338478 21.8602639,9.80713328 L21.8602639,12.2398977 C21.8602639,12.2990698 21.8896528,12.3499579 21.9409353,12.379544 C21.9922178,12.40913 22.0507983,12.40913 22.102278,12.379544 L25.567202,10.3777501 C25.6569464,10.3258758 25.708229,10.2371176 25.708229,10.1333691 L25.708229,7.58423278 C25.708229,7.48048427 25.6569464,7.39133156 25.567202,7.33965455" id="Fill-50" fill="#003893" mask="url(#mask-5)"></path>
            </g>
        </g>
    </g>
</svg>